<?xml version="1.0" encoding="utf-8"?>
<!-- Generator: Adobe Illustrator 16.0.0, SVG Export Plug-In . SVG Version: 6.00 Build 0)  -->
<!DOCTYPE svg PUBLIC "-//W3C//DTD SVG 1.1//EN" "http://www.w3.org/Graphics/SVG/1.1/DTD/svg11.dtd">
<svg version="1.1" id="圖層_1" xmlns="http://www.w3.org/2000/svg" xmlns:xlink="http://www.w3.org/1999/xlink" x="0px" y="0px"
	 width="20.5px" height="24px" viewBox="0 0 20.5 24" enable-background="new 0 0 20.5 24" xml:space="preserve">
<g>
	<g>
		<defs>
			<rect id="SVGID_1_" width="20.5" height="24"/>
		</defs>
		<clipPath id="SVGID_2_">
			<use xlink:href="#SVGID_1_"  overflow="visible"/>
		</clipPath>
		<path clip-path="url(#SVGID_2_)" fill="#6C51E2" d="M-25.213,15.408c0.176,0.016,0.352,0.023,0.528,0.023h3.164
			c0.176,0,0.352-0.009,0.527-0.023l-2.063-5.594L-25.213,15.408z M-26.994,21c-0.272-0.066-0.539-0.119-0.8-0.156
			c-0.274-0.041-0.551-0.061-0.828-0.061c-0.268,0-0.535,0.021-0.8,0.061c-0.25,0.035-0.497,0.088-0.74,0.156l1.416-3.191
			c0.224-0.479,0.472-1.037,0.744-1.668c0.272-0.633,0.556-1.309,0.852-2.029c0.296-0.719,0.604-1.471,0.924-2.256l0.96-2.352
			c0.176-0.447,0.376-0.965,0.6-1.549s0.441-1.16,0.652-1.729c0.208-0.566,0.4-1.08,0.576-1.535
			c0.176-0.457,0.305-0.779,0.384-0.973c0.272,0.066,0.552,0.118,0.841,0.155c0.277,0.04,0.559,0.062,0.84,0.062
			c0.289,0,0.578-0.021,0.863-0.062c0.288-0.039,0.568-0.093,0.84-0.155c0.176,0.575,0.4,1.252,0.672,2.028
			c0.272,0.774,0.564,1.592,0.877,2.446c0.312,0.856,0.632,1.713,0.959,2.568c0.328,0.855,0.637,1.652,0.925,2.389
			c0.333,0.849,0.633,1.601,0.899,2.256c0.268,0.656,0.52,1.275,0.756,1.859c0.24,0.584,0.492,1.172,0.756,1.764
			c0.265,0.593,0.563,1.248,0.896,1.97c-0.514-0.103-1.035-0.162-1.56-0.181c-0.576-0.024-1.104-0.036-1.584-0.036
			c-0.513,0-1.028,0.021-1.548,0.061c-0.521,0.04-1.036,0.093-1.549,0.156c-0.16-0.606-0.324-1.19-0.492-1.752
			s-0.355-1.121-0.563-1.681c-0.528,0-1.056-0.004-1.584-0.012c-0.528-0.01-1.056-0.014-1.584-0.014
			c-0.416,0-0.836,0.004-1.26,0.014c-0.424,0.008-0.844,0.012-1.26,0.012c-0.223,0.556-0.415,1.123-0.576,1.699
			C-26.649,19.846-26.817,20.424-26.994,21z M10.351,19.248c0.517,0.014,1.026-0.102,1.487-0.336
			c0.408-0.217,0.768-0.516,1.057-0.877c0.3-0.379,0.537-0.805,0.7-1.26c0.174-0.48,0.31-0.973,0.403-1.478
			c0.096-0.502,0.157-1.012,0.188-1.522c0.032-0.512,0.048-0.984,0.048-1.416c-0.003-0.742-0.047-1.482-0.132-2.221
			c-0.08-0.759-0.267-1.5-0.552-2.207c-0.264-0.656-0.684-1.238-1.225-1.693c-0.613-0.473-1.375-0.711-2.147-0.672
			C9.44,5.532,8.715,5.757,8.127,6.203c-0.524,0.431-0.94,0.979-1.213,1.602c-0.295,0.666-0.49,1.375-0.576,2.1
			c-0.092,0.703-0.14,1.414-0.144,2.123c0,0.496,0.013,1.021,0.036,1.572c0.023,0.547,0.083,1.094,0.18,1.633
			c0.092,0.519,0.229,1.027,0.408,1.523c0.168,0.467,0.416,0.9,0.732,1.283c0.313,0.379,0.707,0.682,1.152,0.889
			C9.222,19.156,9.785,19.266,10.351,19.248z M10.158,3.6c1.311-0.01,2.612,0.18,3.864,0.564c1.144,0.346,2.207,0.912,3.132,1.668
			c0.893,0.74,1.605,1.67,2.088,2.725c0.525,1.18,0.783,2.463,0.756,3.756c0.031,1.349-0.229,2.687-0.768,3.924
			c-0.48,1.07-1.199,2.019-2.1,2.771c-0.928,0.756-2.002,1.309-3.156,1.619c-1.273,0.354-2.592,0.525-3.912,0.518
			c-1.262,0.008-2.518-0.184-3.72-0.563c-1.125-0.353-2.169-0.925-3.072-1.681c-0.888-0.756-1.597-1.696-2.076-2.76
			c-0.521-1.176-0.778-2.449-0.756-3.731c-0.026-1.308,0.228-2.603,0.744-3.802c0.47-1.061,1.171-2.004,2.052-2.76
			c0.905-0.762,1.954-1.334,3.084-1.68C7.562,3.781,8.856,3.59,10.158,3.6z M22.858,13.08c0-0.209-0.004-0.564-0.012-1.068
			c-0.009-0.504-0.013-1.037-0.013-1.6c0-0.576-0.004-1.113-0.013-1.607c-0.008-0.496-0.012-0.842-0.012-1.033
			c0-0.543-0.017-1.145-0.048-1.799c-0.032-0.656-0.09-1.377-0.168-2.16c0.432,0.047,0.916,0.097,1.451,0.144
			c0.535,0.049,1.035,0.071,1.5,0.071c0.447,0,0.947-0.02,1.5-0.061c0.553-0.039,1.035-0.092,1.451-0.154
			c-0.048,0.56-0.088,1.144-0.119,1.752c-0.031,0.607-0.063,1.213-0.092,1.814c-0.023,0.602-0.041,1.178-0.049,1.729
			c-0.008,0.554-0.012,1.062-0.012,1.523c0.368,0.018,0.775,0.029,1.225,0.037c0.447,0.008,0.911,0.012,1.391,0.012
			c0.416,0,0.856-0.008,1.32-0.023c0.465-0.016,0.92-0.024,1.368-0.024c0-0.479-0.004-1.004-0.012-1.571
			c-0.009-0.566-0.024-1.146-0.048-1.74c-0.024-0.592-0.053-1.188-0.084-1.787c-0.032-0.6-0.072-1.172-0.12-1.717
			c0.432,0.049,0.92,0.098,1.464,0.145c0.544,0.049,1.04,0.072,1.488,0.072c0.447,0,0.947-0.02,1.5-0.061
			c0.552-0.039,1.035-0.093,1.451-0.156c-0.097,1.01-0.162,2.049-0.199,3.121c-0.037,1.071-0.059,2.319-0.062,3.744
			c0,1.071,0.009,2.053,0.024,2.938c0.017,0.889,0.036,1.735,0.061,2.545c0.023,0.81,0.049,1.601,0.071,2.375
			c0.022,0.776,0.054,1.599,0.084,2.461c-1.041-0.146-2.092-0.217-3.146-0.217c-0.465,0-0.926,0.021-1.379,0.062
			c-0.453,0.039-0.914,0.092-1.381,0.155c0.066-0.526,0.119-1.164,0.156-1.908c0.037-0.743,0.064-1.495,0.084-2.256
			c0.016-0.76,0.028-1.479,0.036-2.159c0.008-0.681,0.013-1.23,0.013-1.646c-0.433,0-0.873-0.008-1.32-0.022
			c-0.447-0.016-0.896-0.022-1.344-0.022c-0.416,0-0.855,0.004-1.32,0.012s-0.903,0.02-1.319,0.035c0,0.432,0.004,0.988,0.012,1.668
			c0.009,0.68,0.021,1.4,0.036,2.16c0.018,0.76,0.04,1.508,0.072,2.24c0.031,0.733,0.07,1.366,0.12,1.899
			c-0.496-0.08-0.99-0.138-1.484-0.168c-0.493-0.033-0.998-0.049-1.516-0.049c-0.608,0-1.138,0.021-1.585,0.062
			c-0.447,0.038-0.881,0.092-1.301,0.155l0.102-1.201c0.031-0.353,0.061-0.795,0.084-1.331c0.023-0.535,0.04-1.111,0.048-1.728
			c0.008-0.617,0.017-1.244,0.022-1.886c0.01-0.641,0.014-1.231,0.014-1.774L22.858,13.08L22.858,13.08z M45.778,15.408
			c0.177,0.016,0.353,0.023,0.528,0.023h3.168c0.176,0,0.352-0.009,0.527-0.023l-2.063-5.594L45.778,15.408z M43.998,21
			c-0.271-0.066-0.537-0.119-0.8-0.156c-0.274-0.041-0.551-0.061-0.827-0.061c-0.269,0-0.535,0.021-0.801,0.061
			c-0.25,0.035-0.496,0.088-0.74,0.156l1.416-3.191c0.226-0.479,0.474-1.037,0.744-1.668c0.272-0.633,0.557-1.309,0.852-2.029
			c0.298-0.719,0.604-1.471,0.926-2.256l0.96-2.352c0.176-0.447,0.376-0.965,0.601-1.549s0.439-1.16,0.647-1.729
			c0.208-0.567,0.399-1.08,0.576-1.535c0.176-0.457,0.304-0.779,0.384-0.973c0.271,0.066,0.552,0.118,0.84,0.155
			c0.278,0.04,0.561,0.062,0.84,0.062c0.289,0,0.578-0.021,0.864-0.062c0.288-0.039,0.567-0.093,0.84-0.155
			c0.177,0.575,0.4,1.252,0.672,2.028c0.272,0.774,0.564,1.593,0.876,2.45c0.313,0.857,0.633,1.714,0.961,2.568
			c0.327,0.855,0.637,1.652,0.924,2.389c0.334,0.849,0.634,1.601,0.899,2.257c0.267,0.655,0.519,1.274,0.756,1.858
			c0.24,0.584,0.492,1.172,0.757,1.765c0.264,0.592,0.563,1.248,0.899,1.965c-0.515-0.103-1.036-0.162-1.562-0.181
			c-0.574-0.024-1.104-0.036-1.584-0.036c-0.512,0-1.026,0.021-1.547,0.061c-0.521,0.039-1.037,0.093-1.549,0.156
			c-0.16-0.606-0.324-1.19-0.492-1.752s-0.354-1.121-0.563-1.681c-0.528,0-1.057-0.004-1.584-0.012
			c-0.528-0.01-1.057-0.014-1.584-0.014c-0.416,0-0.836,0.004-1.262,0.014c-0.424,0.008-0.844,0.012-1.26,0.012
			c-0.223,0.556-0.414,1.123-0.576,1.699C44.342,19.846,44.174,20.424,43.998,21z"/>
	</g>
</g>
</svg>
