<?xml version="1.0" encoding="utf-8"?>
<!-- Generator: Adobe Illustrator 16.0.0, SVG Export Plug-In . SVG Version: 6.00 Build 0)  -->
<!DOCTYPE svg PUBLIC "-//W3C//DTD SVG 1.1//EN" "http://www.w3.org/Graphics/SVG/1.1/DTD/svg11.dtd">
<svg version="1.1" id="圖層_1" xmlns="http://www.w3.org/2000/svg" xmlns:xlink="http://www.w3.org/1999/xlink" x="0px" y="0px"
	 width="21.75px" height="24px" viewBox="0 37.25 21.75 24" enable-background="new 0 37.25 21.75 24" xml:space="preserve">
<g>
	<defs>
		<rect id="SVGID_1_" y="37.25" width="21.75" height="24"/>
	</defs>
	<clipPath id="SVGID_2_">
		<use xlink:href="#SVGID_1_"  overflow="visible"/>
	</clipPath>
	<path clip-path="url(#SVGID_2_)" fill="#6C51E2" d="M8.724,52.658c0.176,0.016,0.352,0.023,0.528,0.023h3.164
		c0.176,0,0.352-0.008,0.528-0.023l-2.064-5.592L8.724,52.658z M6.944,58.25c-0.272-0.066-0.539-0.119-0.8-0.156
		c-0.274-0.041-0.551-0.061-0.828-0.06c-0.268,0-0.535,0.021-0.8,0.06c-0.25,0.036-0.497,0.088-0.74,0.156l1.416-3.191
		c0.224-0.48,0.472-1.037,0.744-1.668c0.272-0.633,0.556-1.309,0.852-2.029c0.296-0.719,0.604-1.471,0.924-2.256l0.96-2.352
		c0.176-0.447,0.376-0.964,0.6-1.548s0.441-1.16,0.652-1.728c0.208-0.568,0.4-1.08,0.576-1.537c0.176-0.455,0.304-0.779,0.384-0.971
		c0.272,0.066,0.552,0.118,0.84,0.155c0.278,0.04,0.559,0.06,0.84,0.06c0.289,0,0.578-0.02,0.864-0.06
		c0.288-0.04,0.568-0.092,0.84-0.155c0.176,0.575,0.4,1.252,0.672,2.027s0.564,1.592,0.876,2.447
		c0.312,0.857,0.632,1.713,0.96,2.568c0.328,0.856,0.636,1.652,0.924,2.389c0.333,0.848,0.633,1.6,0.9,2.256
		s0.519,1.275,0.756,1.859c0.24,0.584,0.492,1.172,0.756,1.765c0.264,0.592,0.563,1.247,0.896,1.968
		c-0.514-0.102-1.036-0.162-1.56-0.18c-0.576-0.024-1.104-0.036-1.584-0.036c-0.512,0-1.028,0.021-1.548,0.06
		c-0.52,0.04-1.036,0.092-1.548,0.156c-0.16-0.607-0.324-1.191-0.492-1.752s-0.356-1.12-0.564-1.68
		c-0.528,0-1.056-0.004-1.584-0.012c-0.528-0.009-1.056-0.013-1.584-0.013c-0.416,0-0.836,0.004-1.26,0.013
		c-0.424,0.008-0.844,0.012-1.26,0.012c-0.223,0.555-0.415,1.123-0.576,1.699C7.288,57.097,7.12,57.674,6.944,58.25z M28.544,55.826
		c0.16,0,0.48-0.004,0.96-0.012s1.014-0.024,1.6-0.049c0.584-0.023,1.172-0.052,1.764-0.084c0.487-0.021,0.974-0.07,1.456-0.144
		c-0.032,0.176-0.06,0.38-0.084,0.612c-0.025,0.259-0.038,0.52-0.036,0.779c0,0.221,0.012,0.441,0.036,0.66
		c0.024,0.217,0.052,0.436,0.084,0.66c-1.008-0.08-1.908-0.137-2.7-0.168c-0.792-0.032-1.579-0.048-2.36-0.048
		c-0.867,0-1.859,0.016-2.976,0.048c-1.117,0.031-2.277,0.088-3.48,0.168c0.148-0.736,0.244-1.482,0.288-2.232
		c0.048-0.783,0.072-1.52,0.072-2.207v-1.248c0-0.769-0.004-1.469-0.012-2.101c-0.008-0.632-0.016-1.228-0.024-1.788
		c-0.008-0.561-0.02-1.1-0.036-1.619c-0.016-0.521-0.032-1.061-0.048-1.621c-0.032-0.732-0.056-1.488-0.072-2.268
		c-0.011-0.702-0.059-1.402-0.144-2.1c1.018,0.145,2.044,0.217,3.072,0.216c0.496,0,0.972-0.017,1.428-0.048
		c0.456-0.032,0.923-0.088,1.4-0.168c-0.048,0.416-0.084,0.972-0.108,1.668c-0.024,0.695-0.048,1.436-0.072,2.22
		c-0.024,0.784-0.04,1.56-0.048,2.328c-0.008,0.768-0.012,1.432-0.012,1.991v1.101c0,0.224,0.004,0.597,0.012,1.116
		s0.015,1.068,0.02,1.648c0,0.575,0.004,1.119,0.012,1.631C28.544,55.282,28.547,55.634,28.544,55.826z M44.288,56.498
		c0.516,0.014,1.027-0.102,1.488-0.336c0.408-0.217,0.767-0.516,1.056-0.876c0.3-0.38,0.537-0.805,0.7-1.261
		c0.174-0.479,0.31-0.973,0.404-1.476c0.095-0.503,0.157-1.013,0.188-1.524c0.032-0.512,0.048-0.983,0.048-1.416
		c-0.003-0.741-0.047-1.482-0.132-2.219c-0.08-0.759-0.266-1.502-0.552-2.209c-0.263-0.656-0.683-1.236-1.224-1.691
		c-0.613-0.474-1.375-0.712-2.148-0.672c-0.738-0.035-1.464,0.189-2.052,0.636c-0.524,0.431-0.94,0.979-1.212,1.601
		c-0.295,0.666-0.49,1.375-0.576,2.1c-0.092,0.704-0.14,1.414-0.144,2.123c0,0.496,0.012,1.021,0.036,1.572
		c0.023,0.548,0.083,1.094,0.18,1.633c0.091,0.519,0.228,1.028,0.408,1.523c0.168,0.467,0.416,0.901,0.732,1.284
		c0.314,0.378,0.708,0.681,1.152,0.888C43.159,56.406,43.722,56.516,44.288,56.498z M44.096,40.85
		c1.31-0.01,2.612,0.181,3.864,0.564c1.144,0.346,2.207,0.912,3.132,1.668c0.892,0.74,1.605,1.671,2.088,2.725
		c0.525,1.181,0.783,2.463,0.756,3.756c0.031,1.348-0.23,2.687-0.768,3.924c-0.48,1.07-1.199,2.019-2.1,2.771
		c-0.927,0.756-2.002,1.309-3.156,1.62c-1.274,0.353-2.591,0.525-3.912,0.517c-1.262,0.008-2.517-0.184-3.72-0.564
		c-1.125-0.352-2.168-0.924-3.072-1.68c-0.888-0.755-1.597-1.697-2.076-2.76c-0.52-1.175-0.778-2.448-0.756-3.732
		c-0.026-1.306,0.228-2.602,0.744-3.801c0.47-1.061,1.171-2.004,2.052-2.76c0.905-0.762,1.954-1.333,3.084-1.68
		C41.499,41.031,42.794,40.84,44.096,40.85z M56.796,50.33c0-0.208-0.004-0.564-0.012-1.068c-0.009-0.504-0.013-1.037-0.013-1.6
		c0-0.576-0.004-1.112-0.012-1.607c-0.008-0.496-0.012-0.841-0.012-1.033c0-0.543-0.016-1.144-0.048-1.799
		c-0.032-0.656-0.089-1.377-0.168-2.16c0.432,0.047,0.916,0.096,1.452,0.144c0.535,0.048,1.035,0.071,1.5,0.071
		c0.447,0,0.947-0.02,1.5-0.06c0.552-0.04,1.035-0.092,1.451-0.155c-0.048,0.56-0.088,1.144-0.119,1.752
		c-0.032,0.607-0.063,1.213-0.092,1.815c-0.024,0.601-0.041,1.177-0.049,1.728c-0.008,0.553-0.012,1.061-0.012,1.524
		c0.368,0.017,0.775,0.028,1.225,0.036c0.447,0.008,0.911,0.012,1.391,0.012c0.416,0,0.856-0.008,1.32-0.023
		c0.465-0.016,0.92-0.024,1.368-0.024c0-0.479-0.004-1.004-0.012-1.571c-0.008-0.568-0.024-1.148-0.048-1.74
		c-0.024-0.592-0.053-1.188-0.084-1.788c-0.032-0.601-0.072-1.173-0.12-1.716c0.432,0.047,0.92,0.096,1.464,0.144
		s1.04,0.071,1.488,0.072c0.447,0,0.947-0.021,1.5-0.06c0.552-0.041,1.035-0.093,1.451-0.156c-0.096,1.008-0.162,2.047-0.199,3.119
		s-0.058,2.32-0.061,3.744c0,1.072,0.008,2.053,0.024,2.94s0.036,1.735,0.06,2.544c0.024,0.809,0.049,1.6,0.072,2.376
		s0.053,1.597,0.084,2.46c-1.041-0.145-2.092-0.217-3.145-0.216c-0.466,0-0.926,0.021-1.379,0.06
		c-0.453,0.04-0.914,0.092-1.381,0.156c0.066-0.527,0.119-1.164,0.156-1.908s0.065-1.496,0.084-2.256
		c0.016-0.76,0.028-1.48,0.036-2.16s0.013-1.229,0.013-1.644c-0.433,0-0.873-0.009-1.32-0.024c-0.448-0.016-0.896-0.023-1.344-0.023
		c-0.416,0-0.856,0.004-1.32,0.012c-0.465,0.008-0.904,0.02-1.32,0.036c0,0.432,0.004,0.987,0.012,1.668
		c0.008,0.68,0.021,1.399,0.036,2.159c0.017,0.761,0.04,1.508,0.072,2.24c0.032,0.734,0.071,1.367,0.12,1.9
		c-0.496-0.08-0.99-0.137-1.484-0.168c-0.493-0.032-0.998-0.048-1.516-0.048c-0.608,0-1.137,0.021-1.584,0.06
		c-0.448,0.04-0.882,0.092-1.301,0.156l0.101-1.2c0.032-0.353,0.06-0.796,0.084-1.332s0.04-1.112,0.048-1.728
		c0.008-0.616,0.016-1.244,0.023-1.885c0.009-0.64,0.013-1.231,0.013-1.775H56.796z M79.716,52.658
		c0.177,0.016,0.353,0.023,0.528,0.023h3.168c0.176,0,0.352-0.008,0.527-0.023l-2.063-5.592L79.716,52.658z M77.936,58.25
		c-0.271-0.066-0.538-0.119-0.8-0.156c-0.274-0.041-0.551-0.061-0.827-0.06c-0.269,0-0.535,0.021-0.801,0.06
		c-0.25,0.036-0.496,0.088-0.74,0.156l1.416-3.191c0.225-0.48,0.473-1.037,0.744-1.668c0.272-0.633,0.557-1.309,0.852-2.029
		c0.297-0.719,0.604-1.471,0.925-2.256l0.96-2.352c0.176-0.447,0.376-0.964,0.6-1.548c0.225-0.584,0.44-1.16,0.648-1.728
		c0.208-0.568,0.4-1.08,0.576-1.537c0.176-0.455,0.304-0.779,0.384-0.971c0.272,0.066,0.552,0.118,0.84,0.155
		c0.278,0.04,0.56,0.06,0.84,0.06c0.289,0,0.578-0.02,0.864-0.06c0.288-0.04,0.568-0.092,0.84-0.155
		c0.176,0.575,0.4,1.252,0.672,2.027c0.272,0.775,0.564,1.594,0.876,2.452c0.313,0.856,0.632,1.712,0.96,2.567
		c0.328,0.856,0.637,1.652,0.924,2.389c0.334,0.848,0.634,1.6,0.9,2.256s0.519,1.275,0.756,1.859
		c0.24,0.584,0.492,1.172,0.756,1.765c0.264,0.592,0.564,1.247,0.9,1.964c-0.514-0.102-1.036-0.162-1.561-0.18
		c-0.575-0.024-1.104-0.036-1.584-0.036c-0.512,0-1.027,0.021-1.547,0.06c-0.521,0.04-1.037,0.092-1.549,0.156
		c-0.16-0.607-0.324-1.191-0.492-1.752s-0.355-1.12-0.563-1.68c-0.528,0-1.056-0.004-1.584-0.012
		c-0.528-0.009-1.056-0.013-1.584-0.013c-0.416,0-0.836,0.004-1.261,0.013c-0.424,0.008-0.844,0.012-1.26,0.012
		c-0.223,0.555-0.415,1.123-0.576,1.699C78.279,57.097,78.111,57.674,77.936,58.25z"/>
</g>
</svg>
