<?xml version="1.0" encoding="utf-8"?>
<!-- Generator: Adobe Illustrator 16.0.0, SVG Export Plug-In . SVG Version: 6.00 Build 0)  -->
<!DOCTYPE svg PUBLIC "-//W3C//DTD SVG 1.1//EN" "http://www.w3.org/Graphics/SVG/1.1/DTD/svg11.dtd">
<svg version="1.1" id="圖層_1" xmlns="http://www.w3.org/2000/svg" xmlns:xlink="http://www.w3.org/1999/xlink" x="0px" y="0px"
	 width="22.063px" height="24px" viewBox="73.938 37.25 22.063 24" enable-background="new 73.938 37.25 22.063 24"
	 xml:space="preserve">
<g>
	<defs>
		<rect id="SVGID_1_" x="73.938" y="37.25" width="22.063" height="24"/>
	</defs>
	<clipPath id="SVGID_2_">
		<use xlink:href="#SVGID_1_"  overflow="visible"/>
	</clipPath>
	<path clip-path="url(#SVGID_2_)" fill="#6C51E2" d="M8.724,52.658c0.176,0.016,0.352,0.023,0.528,0.023h3.164
		c0.176,0,0.352-0.008,0.528-0.023l-2.064-5.593L8.724,52.658z M6.944,58.25c-0.272-0.066-0.539-0.119-0.8-0.156
		c-0.274-0.041-0.551-0.061-0.828-0.061c-0.268,0-0.535,0.021-0.8,0.061c-0.25,0.035-0.497,0.088-0.74,0.156l1.416-3.191
		c0.224-0.48,0.472-1.037,0.744-1.668c0.272-0.633,0.556-1.309,0.852-2.029c0.296-0.719,0.604-1.471,0.924-2.256l0.96-2.352
		c0.176-0.448,0.376-0.965,0.6-1.549s0.441-1.16,0.652-1.728c0.208-0.567,0.4-1.08,0.576-1.536s0.304-0.779,0.384-0.972
		c0.272,0.066,0.552,0.118,0.84,0.155c0.278,0.04,0.559,0.061,0.84,0.061c0.289,0,0.578-0.02,0.864-0.061
		c0.288-0.039,0.568-0.092,0.84-0.155c0.176,0.575,0.4,1.252,0.672,2.028c0.272,0.775,0.564,1.592,0.876,2.447
		c0.312,0.856,0.632,1.713,0.96,2.568c0.328,0.855,0.636,1.652,0.924,2.389c0.333,0.848,0.633,1.6,0.9,2.256
		s0.519,1.275,0.756,1.859c0.24,0.584,0.492,1.172,0.756,1.764c0.264,0.592,0.563,1.248,0.896,1.969
		c-0.514-0.102-1.036-0.162-1.56-0.18c-0.576-0.025-1.104-0.037-1.584-0.037c-0.512,0-1.028,0.021-1.548,0.061
		s-1.036,0.092-1.548,0.156c-0.16-0.607-0.324-1.191-0.492-1.752s-0.356-1.121-0.564-1.68c-0.528,0-1.056-0.004-1.584-0.012
		c-0.528-0.01-1.056-0.014-1.584-0.014c-0.416,0-0.836,0.004-1.26,0.014c-0.424,0.008-0.844,0.012-1.26,0.012
		c-0.223,0.555-0.415,1.123-0.576,1.699C7.288,57.096,7.12,57.674,6.944,58.25z M28.544,55.826c0.16,0,0.48-0.004,0.96-0.012
		s1.014-0.025,1.6-0.049c0.584-0.023,1.172-0.053,1.764-0.084c0.487-0.021,0.974-0.07,1.456-0.145
		c-0.032,0.176-0.06,0.381-0.084,0.613c-0.025,0.258-0.038,0.52-0.036,0.779c0,0.221,0.012,0.441,0.036,0.66
		c0.024,0.217,0.052,0.436,0.084,0.66c-1.008-0.08-1.908-0.137-2.7-0.168c-0.792-0.033-1.579-0.049-2.36-0.049
		c-0.867,0-1.859,0.016-2.976,0.049c-1.117,0.031-2.277,0.088-3.48,0.168c0.148-0.736,0.244-1.482,0.288-2.232
		c0.048-0.783,0.072-1.52,0.072-2.207v-1.248c0-0.77-0.004-1.469-0.012-2.102c-0.008-0.631-0.016-1.228-0.024-1.787
		c-0.008-0.561-0.02-1.1-0.036-1.62c-0.016-0.521-0.032-1.06-0.048-1.62c-0.032-0.733-0.056-1.489-0.072-2.268
		c-0.011-0.703-0.059-1.403-0.144-2.101c1.018,0.145,2.044,0.217,3.072,0.216c0.496,0,0.972-0.016,1.428-0.048
		s0.923-0.088,1.4-0.168c-0.048,0.416-0.084,0.972-0.108,1.668s-0.048,1.437-0.072,2.22c-0.024,0.784-0.04,1.561-0.048,2.328
		s-0.012,1.432-0.012,1.992v1.1c0,0.225,0.004,0.598,0.012,1.117s0.015,1.068,0.02,1.648c0,0.574,0.004,1.119,0.012,1.631
		C28.544,55.281,28.547,55.633,28.544,55.826z M44.288,56.498c0.516,0.014,1.027-0.102,1.488-0.336
		c0.408-0.217,0.767-0.516,1.056-0.877c0.3-0.379,0.537-0.805,0.7-1.26c0.174-0.48,0.31-0.973,0.404-1.477
		c0.095-0.502,0.157-1.012,0.188-1.523c0.032-0.512,0.048-0.984,0.048-1.416c-0.003-0.742-0.047-1.482-0.132-2.22
		c-0.08-0.759-0.266-1.501-0.552-2.208c-0.263-0.656-0.683-1.237-1.224-1.692c-0.613-0.474-1.375-0.712-2.148-0.672
		c-0.738-0.035-1.464,0.19-2.052,0.636c-0.524,0.431-0.94,0.979-1.212,1.601c-0.295,0.667-0.49,1.375-0.576,2.1
		c-0.092,0.704-0.14,1.414-0.144,2.124c0,0.496,0.012,1.02,0.036,1.572c0.023,0.547,0.083,1.094,0.18,1.633
		c0.091,0.518,0.228,1.027,0.408,1.523c0.168,0.467,0.416,0.9,0.732,1.283c0.314,0.379,0.708,0.682,1.152,0.889
		C43.159,56.406,43.722,56.516,44.288,56.498z M44.096,40.85c1.31-0.01,2.612,0.18,3.864,0.564c1.144,0.346,2.207,0.912,3.132,1.668
		c0.892,0.74,1.605,1.67,2.088,2.724c0.525,1.181,0.783,2.464,0.756,3.756c0.031,1.349-0.23,2.687-0.768,3.925
		c-0.48,1.07-1.199,2.018-2.1,2.771c-0.927,0.756-2.002,1.309-3.156,1.619c-1.274,0.354-2.591,0.525-3.912,0.518
		c-1.262,0.008-2.517-0.184-3.72-0.564c-1.125-0.352-2.168-0.924-3.072-1.68c-0.888-0.756-1.597-1.697-2.076-2.76
		c-0.52-1.176-0.778-2.449-0.756-3.732c-0.026-1.307,0.228-2.602,0.744-3.801c0.47-1.061,1.171-2.004,2.052-2.76
		c0.905-0.762,1.954-1.334,3.084-1.68C41.499,41.031,42.794,40.84,44.096,40.85z M56.796,50.33c0-0.209-0.004-0.564-0.012-1.068
		c-0.009-0.504-0.013-1.037-0.013-1.6c0-0.576-0.004-1.113-0.012-1.608c-0.008-0.496-0.012-0.841-0.012-1.032
		c0-0.544-0.016-1.145-0.048-1.8c-0.032-0.656-0.089-1.376-0.168-2.16c0.432,0.048,0.916,0.097,1.452,0.144
		c0.535,0.049,1.035,0.072,1.5,0.072c0.447,0,0.947-0.02,1.5-0.061c0.552-0.039,1.035-0.092,1.451-0.155
		c-0.048,0.56-0.088,1.144-0.119,1.752c-0.032,0.608-0.063,1.214-0.092,1.815c-0.024,0.601-0.041,1.177-0.049,1.729
		c-0.008,0.553-0.012,1.061-0.012,1.523c0.368,0.017,0.775,0.029,1.225,0.037c0.447,0.008,0.911,0.012,1.391,0.012
		c0.416,0,0.856-0.008,1.32-0.024c0.465-0.016,0.92-0.024,1.368-0.024c0-0.479-0.004-1.004-0.012-1.571s-0.024-1.147-0.048-1.74
		c-0.024-0.592-0.053-1.188-0.084-1.788c-0.032-0.6-0.072-1.172-0.12-1.716c0.432,0.048,0.92,0.097,1.464,0.144
		c0.544,0.049,1.04,0.072,1.488,0.072c0.447,0,0.947-0.02,1.5-0.06c0.552-0.04,1.035-0.093,1.451-0.156
		c-0.096,1.009-0.162,2.048-0.199,3.12s-0.058,2.32-0.061,3.744c0,1.072,0.008,2.053,0.024,2.939
		c0.017,0.889,0.036,1.736,0.06,2.545c0.024,0.809,0.049,1.6,0.072,2.375c0.023,0.777,0.053,1.598,0.084,2.461
		c-1.041-0.145-2.092-0.217-3.145-0.217c-0.466,0-0.926,0.021-1.379,0.061s-0.914,0.092-1.381,0.156
		c0.066-0.527,0.119-1.164,0.156-1.908s0.065-1.496,0.084-2.256c0.016-0.76,0.028-1.48,0.036-2.16s0.013-1.229,0.013-1.645
		c-0.433,0-0.873-0.008-1.32-0.023c-0.448-0.016-0.896-0.023-1.344-0.023c-0.416,0-0.856,0.004-1.32,0.012
		c-0.465,0.008-0.904,0.02-1.32,0.035c0,0.432,0.004,0.988,0.012,1.668s0.021,1.4,0.036,2.16c0.017,0.76,0.04,1.508,0.072,2.24
		c0.032,0.734,0.071,1.367,0.12,1.9c-0.496-0.08-0.99-0.137-1.484-0.168c-0.493-0.033-0.998-0.049-1.516-0.049
		c-0.608,0-1.137,0.021-1.584,0.061c-0.448,0.039-0.882,0.092-1.301,0.156l0.101-1.201c0.032-0.352,0.06-0.795,0.084-1.332
		c0.024-0.535,0.04-1.111,0.048-1.727c0.008-0.617,0.016-1.244,0.023-1.885c0.009-0.641,0.013-1.232,0.013-1.775H56.796z
		 M79.716,52.658c0.177,0.016,0.353,0.023,0.528,0.023h3.168c0.176,0,0.352-0.008,0.527-0.023l-2.063-5.593L79.716,52.658z
		 M77.936,58.25c-0.271-0.066-0.538-0.119-0.8-0.156c-0.274-0.041-0.551-0.061-0.827-0.061c-0.269,0-0.535,0.021-0.801,0.061
		c-0.25,0.035-0.496,0.088-0.74,0.156l1.416-3.191c0.225-0.48,0.473-1.037,0.744-1.668c0.272-0.633,0.557-1.309,0.852-2.029
		c0.297-0.719,0.604-1.471,0.925-2.256l0.96-2.352c0.176-0.448,0.376-0.965,0.6-1.549c0.225-0.584,0.44-1.16,0.648-1.728
		s0.4-1.08,0.576-1.536s0.304-0.779,0.384-0.972c0.272,0.066,0.552,0.118,0.84,0.155c0.278,0.04,0.56,0.061,0.84,0.061
		c0.289,0,0.578-0.02,0.864-0.061c0.288-0.039,0.568-0.092,0.84-0.155c0.176,0.575,0.4,1.252,0.672,2.028
		c0.272,0.775,0.564,1.593,0.876,2.451c0.313,0.856,0.632,1.713,0.96,2.568s0.637,1.652,0.924,2.389
		c0.334,0.848,0.634,1.6,0.9,2.256s0.519,1.275,0.756,1.859c0.24,0.584,0.492,1.172,0.756,1.764s0.564,1.248,0.9,1.965
		c-0.514-0.102-1.036-0.162-1.561-0.18c-0.575-0.025-1.104-0.037-1.584-0.037c-0.512,0-1.027,0.021-1.547,0.061
		c-0.521,0.039-1.037,0.092-1.549,0.156c-0.16-0.607-0.324-1.191-0.492-1.752s-0.355-1.121-0.563-1.68
		c-0.528,0-1.056-0.004-1.584-0.012c-0.528-0.01-1.056-0.014-1.584-0.014c-0.416,0-0.836,0.004-1.261,0.014
		c-0.424,0.008-0.844,0.012-1.26,0.012c-0.223,0.555-0.415,1.123-0.576,1.699C78.279,57.096,78.111,57.674,77.936,58.25z"/>
</g>
</svg>
